<?xml version="1.0" encoding="utf-8"?>
<!-- Generator: Adobe Illustrator 21.0.0, SVG Export Plug-In . SVG Version: 6.00 Build 0)  -->
<svg version="1.1" id="Capa_1" xmlns="http://www.w3.org/2000/svg" xmlns:xlink="http://www.w3.org/1999/xlink" x="0px" y="0px"
	 viewBox="0 0 150 150" style="enable-background:new 0 0 150 150;" xml:space="preserve">
<style type="text/css">
	.st0{fill:none;stroke:#F20808;stroke-width:2;stroke-miterlimit:10;}
	.st1{fill:#F20808;}
	.st2{fill:#DD1F1F;}
	.st3{fill:none;stroke:#000000;stroke-width:0.75;stroke-miterlimit:10;}
	.st4{fill:none;stroke:#000000;stroke-miterlimit:10;}
	.st5{fill:none;}
	.st6{fill:none;stroke:#FFFFFF;stroke-miterlimit:10;}
	.st7{fill:#FFFFFF;stroke:#000000;stroke-miterlimit:10;}
	.st8{fill:none;stroke:#000000;stroke-miterlimit:10;stroke-dasharray:2.09392,2.09392;}
	.st9{stroke:#000000;stroke-width:0.25;stroke-miterlimit:10;}
	.st10{stroke:#FFFFFF;stroke-width:0.25;stroke-miterlimit:10;}
	.st11{fill:#FFFFFF;}
	.st12{fill:none;stroke:#000000;stroke-width:5;stroke-miterlimit:10;}
</style>
<g>
	<path d="M119.3335,106.84619H30.6665V49.27246h27.41211l3.53223-6.11865h26.77832l3.53223,6.11865h27.41211V106.84619z
		 M35.6665,101.84619h78.66699V54.27246H89.03467l-3.53223-6.11865H64.49756l-3.53223,6.11865H35.6665V101.84619z"/>
	<path d="M75.00049,93.9043c-8.64551,0-15.67871-7.0332-15.67871-15.67773c0-8.64502,7.0332-15.67822,15.67871-15.67822
		c8.64453,0,15.67773,7.0332,15.67773,15.67822C90.67822,86.87109,83.64502,93.9043,75.00049,93.9043z M75.00049,67.54834
		c-5.88867,0-10.67871,4.79004-10.67871,10.67822c0,5.8877,4.79004,10.67773,10.67871,10.67773
		c5.8877,0,10.67773-4.79004,10.67773-10.67773C85.67822,72.33838,80.88818,67.54834,75.00049,67.54834z"/>
	<circle cx="98.00016" cy="61.94067" r="1.88185"/>
</g>
</svg>
