<?xml version="1.0" encoding="UTF-8" standalone="no"?>
<!-- Generator: Adobe Illustrator 21.0.0, SVG Export Plug-In . SVG Version: 6.00 Build 0)  -->

<svg
   xmlns:dc="http://purl.org/dc/elements/1.1/"
   xmlns:cc="http://creativecommons.org/ns#"
   xmlns:rdf="http://www.w3.org/1999/02/22-rdf-syntax-ns#"
   xmlns:svg="http://www.w3.org/2000/svg"
   xmlns="http://www.w3.org/2000/svg"
   xmlns:sodipodi="http://sodipodi.sourceforge.net/DTD/sodipodi-0.dtd"
   xmlns:inkscape="http://www.inkscape.org/namespaces/inkscape"
   version="1.1"
   id="Capa_1"
   x="0px"
   y="0px"
   viewBox="0 0 48 48"
   xml:space="preserve"
   sodipodi:docname="CameraPage.svg"
   width="48"
   height="48"
   inkscape:version="0.92.2 (5c3e80d, 2017-08-06)"><metadata
     id="metadata61"><rdf:RDF><cc:Work
         rdf:about=""><dc:format>image/svg+xml</dc:format><dc:type
           rdf:resource="http://purl.org/dc/dcmitype/StillImage" /><dc:title></dc:title></cc:Work></rdf:RDF></metadata><defs
     id="defs59" /><sodipodi:namedview
     pagecolor="#ffffff"
     bordercolor="#666666"
     borderopacity="1"
     objecttolerance="10"
     gridtolerance="10"
     guidetolerance="10"
     inkscape:pageopacity="0"
     inkscape:pageshadow="2"
     inkscape:window-width="1920"
     inkscape:window-height="986"
     id="namedview57"
     showgrid="false"
     height="50px"
     fit-margin-top="0"
     fit-margin-left="0"
     fit-margin-right="0"
     fit-margin-bottom="0"
     scale-x="3.4"
     inkscape:zoom="8.9001173"
     inkscape:cx="98.426501"
     inkscape:cy="10.430512"
     inkscape:window-x="-11"
     inkscape:window-y="-11"
     inkscape:window-maximized="1"
     inkscape:current-layer="Capa_1" /><style
     type="text/css"
     id="style46">
	.st0{fill:none;stroke:#F20808;stroke-width:2;stroke-miterlimit:10;}
	.st1{fill:#F20808;}
	.st2{fill:#DD1F1F;}
	.st3{fill:none;stroke:#000000;stroke-width:0.75;stroke-miterlimit:10;}
	.st4{fill:none;stroke:#000000;stroke-miterlimit:10;}
	.st5{fill:none;}
	.st6{fill:none;stroke:#FFFFFF;stroke-miterlimit:10;}
	.st7{fill:#FFFFFF;stroke:#000000;stroke-miterlimit:10;}
	.st8{fill:none;stroke:#000000;stroke-miterlimit:10;stroke-dasharray:2.09392,2.09392;}
	.st9{stroke:#000000;stroke-width:0.25;stroke-miterlimit:10;}
	.st10{stroke:#FFFFFF;stroke-width:0.25;stroke-miterlimit:10;}
	.st11{fill:#FFFFFF;}
	.st12{fill:none;stroke:#000000;stroke-width:5;stroke-miterlimit:10;}
</style><g
     id="g54"
     transform="matrix(0.54135135,0,0,0.54134628,-16.601351,-16.090787)"><path
       d="M 119.3335,106.84619 H 30.6665 V 49.27246 h 27.41211 l 3.53223,-6.11865 h 26.77832 l 3.53223,6.11865 h 27.41211 z m -83.667,-5 h 78.66699 V 54.27246 H 89.03467 L 85.50244,48.15381 H 64.49756 l -3.53223,6.11865 H 35.6665 Z"
       id="path48"
       inkscape:connector-curvature="0" /><path
       d="m 75.00049,93.9043 c -8.64551,0 -15.67871,-7.0332 -15.67871,-15.67773 0,-8.64502 7.0332,-15.67822 15.67871,-15.67822 8.64453,0 15.67773,7.0332 15.67773,15.67822 0,8.64452 -7.0332,15.67773 -15.67773,15.67773 z m 0,-26.35596 c -5.88867,0 -10.67871,4.79004 -10.67871,10.67822 0,5.8877 4.79004,10.67773 10.67871,10.67773 5.8877,0 10.67773,-4.79004 10.67773,-10.67773 0,-5.88818 -4.79004,-10.67822 -10.67773,-10.67822 z"
       id="path50"
       inkscape:connector-curvature="0" /><circle
       cx="98.00016"
       cy="61.94067"
       r="1.88185"
       id="circle52" /></g></svg>