<?xml version="1.0" encoding="UTF-8" standalone="no"?>
<svg
   xmlns:dc="http://purl.org/dc/elements/1.1/"
   xmlns:cc="http://creativecommons.org/ns#"
   xmlns:rdf="http://www.w3.org/1999/02/22-rdf-syntax-ns#"
   xmlns:svg="http://www.w3.org/2000/svg"
   xmlns="http://www.w3.org/2000/svg"
   xmlns:sodipodi="http://sodipodi.sourceforge.net/DTD/sodipodi-0.dtd"
   xmlns:inkscape="http://www.inkscape.org/namespaces/inkscape"
   id="Capa_1"
   data-name="Capa 1"
   viewBox="0 0 48 48"
   version="1.1"
   sodipodi:docname="DragAndDrop.svg"
   width="48"
   height="48"
   inkscape:version="0.92.2 (5c3e80d, 2017-08-06)">
  <metadata
     id="metadata23">
    <rdf:RDF>
      <cc:Work
         rdf:about="">
        <dc:format>image/svg+xml</dc:format>
        <dc:type
           rdf:resource="http://purl.org/dc/dcmitype/StillImage" />
        <dc:title>icon</dc:title>
      </cc:Work>
    </rdf:RDF>
  </metadata>
  <defs
     id="defs21" />
  <sodipodi:namedview
     pagecolor="#ffffff"
     bordercolor="#666666"
     borderopacity="1"
     objecttolerance="10"
     gridtolerance="10"
     guidetolerance="10"
     inkscape:pageopacity="0"
     inkscape:pageshadow="2"
     inkscape:window-width="1920"
     inkscape:window-height="986"
     id="namedview19"
     showgrid="false"
     fit-margin-top="0"
     fit-margin-left="0"
     fit-margin-right="0"
     fit-margin-bottom="0"
     inkscape:zoom="6.2933333"
     inkscape:cx="2.1433558"
     inkscape:cy="25.502423"
     inkscape:window-x="-11"
     inkscape:window-y="-11"
     inkscape:window-maximized="1"
     inkscape:current-layer="Capa_1" />
  <title
     id="title2">icon</title>
  <path
     d="M 30.867753,16.80466 H 20.13433 V 12.619473 H 17.132135 V 16.80466 H -2.1645e-7 V 47.672408 H 30.867753 v -16.47688 h 4.841916 v -3.00218 H 30.867753 Z M 27.865562,44.670218 H 3.0021908 V 19.806846 H 27.865558 Z"
     id="path4"
     inkscape:connector-curvature="0"
     style="stroke-width:0.48742956" />
  <polygon
     points="124.238,89.762 124.238,77.444 118.079,77.444 118.079,83.603 111.919,83.603 111.919,89.762 "
     id="polygon6"
     transform="matrix(0.48742955,0,0,0.48742955,-12.557272,-12.557121)" />
  <polygon
     points="60.91,77.444 60.91,89.762 73.229,89.762 73.229,83.603 67.069,83.603 67.069,77.444 "
     id="polygon8"
     transform="matrix(0.48742955,0,0,0.48742955,-12.557272,-12.557121)" />
  <polygon
     points="60.91,26.434 60.91,38.753 67.069,38.753 67.069,32.594 73.229,32.594 73.229,26.434 "
     id="polygon10"
     transform="matrix(0.48742955,0,0,0.48742955,-12.557272,-12.557121)" />
  <rect
     x="29.422359"
     y="0.3277837"
     width="6.2858381"
     height="3.0021908"
     id="rect12"
     style="stroke-width:0.48742956" />
  <polygon
     points="118.079,38.753 124.238,38.753 124.238,26.434 111.919,26.434 111.919,32.594 118.079,32.594 "
     id="polygon14"
     transform="matrix(0.48742955,0,0,0.48742955,-12.557272,-12.557121)" />
  <rect
     x="44.997696"
     y="12.618006"
     width="3.0021908"
     height="6.2858381"
     id="rect16"
     style="stroke-width:0.48742956" />
</svg>
