<svg id="Capa_1" data-name="Capa 1" xmlns="http://www.w3.org/2000/svg" viewBox="0 0 150 150"><title>icon</title><path d="M89.08985,60.238H67.06939V51.65176H60.91015V60.238H25.76223v63.32761H89.08985V89.762h9.93357V83.60278H89.08985Zm-6.15923,57.16838H31.92146V66.39722H82.93061Z"/><polygon points="118.079 83.603 111.919 83.603 111.919 89.762 124.238 89.762 124.238 77.444 118.079 77.444 118.079 83.603"/><polygon points="73.229 83.603 67.069 83.603 67.069 77.444 60.91 77.444 60.91 89.762 73.229 89.762 73.229 83.603"/><polygon points="67.069 32.594 73.229 32.594 73.229 26.434 60.91 26.434 60.91 38.753 67.069 38.753 67.069 32.594"/><rect x="86.12451" y="26.43439" width="12.89589" height="6.15923"/><polygon points="111.919 26.434 111.919 32.594 118.079 32.594 118.079 38.753 124.238 38.753 124.238 26.434 111.919 26.434"/><rect x="118.07854" y="51.64875" width="6.15923" height="12.89589"/></svg>