<?xml version="1.0" encoding="utf-8"?>
<!-- Generator: Adobe Illustrator 21.0.0, SVG Export Plug-In . SVG Version: 6.00 Build 0)  -->
<svg version="1.1" id="Capa_1" xmlns="http://www.w3.org/2000/svg" xmlns:xlink="http://www.w3.org/1999/xlink" x="0px" y="0px"
	 viewBox="0 0 150 150" style="enable-background:new 0 0 150 150;" xml:space="preserve">
<style type="text/css">
	.st0{fill:none;stroke:#F20808;stroke-width:2;stroke-miterlimit:10;}
	.st1{fill:#F20808;}
	.st2{fill:#DD1F1F;}
	.st3{fill:none;stroke:#000000;stroke-width:0.75;stroke-miterlimit:10;}
	.st4{fill:none;stroke:#000000;stroke-miterlimit:10;}
	.st5{fill:none;}
	.st6{fill:none;stroke:#FFFFFF;stroke-miterlimit:10;}
	.st7{fill:#FFFFFF;stroke:#000000;stroke-miterlimit:10;}
	.st8{fill:none;stroke:#000000;stroke-miterlimit:10;stroke-dasharray:2.09392,2.09392;}
	.st9{stroke:#000000;stroke-width:0.25;stroke-miterlimit:10;}
	.st10{stroke:#FFFFFF;stroke-width:0.25;stroke-miterlimit:10;}
	.st11{fill:#FFFFFF;}
</style>
<g>
	<g>
		<polygon points="114.66228,56.04822 114.26072,61.70997 117.68106,63.21348 113.4752,72.78065 112.35139,88.62153 
			124.72725,60.47329 		"/>
		<polygon points="72.712,111.00494 97.68292,121.98395 101.60921,113.0542 		"/>
	</g>
	<polygon points="93.79712,41.29987 95.42753,46.77404 105.89047,47.51618 103.92015,75.2909 108.12764,89.41949 
		53.18658,105.78069 106.84563,109.5853 111.6005,42.56297 	"/>
	<path d="M83.87614,22.22247L19.47917,41.40116l19.17608,64.39959l64.39959-19.17869L83.87614,22.22247z M80.27998,28.87199
		l10.83547,36.38837L70.7337,50.65516l-4.31591,10.65846l8.66095,6.49261l-1.16904,1.43523L46.94888,49.28507L35.17326,75.37718
		l-9.04457-30.37985L80.27998,28.87199z"/>
	
		<ellipse transform="matrix(0.9584 -0.28542 0.28542 0.9584 -8.50527 23.50941)" cx="76.40167" cy="40.93394" rx="3.67448" ry="3.67443"/>
</g>
</svg>
