<?xml version="1.0" encoding="utf-8"?>
<!-- Generator: Adobe Illustrator 21.0.2, SVG Export Plug-In . SVG Version: 6.00 Build 0)  -->
<svg version="1.1" id="Layer_1" xmlns="http://www.w3.org/2000/svg" xmlns:xlink="http://www.w3.org/1999/xlink" x="0px" y="0px"
	 viewBox="0 0 223.5 200.3" style="enable-background:new 0 0 223.5 200.3;" xml:space="preserve">
<style type="text/css">
	.st0{fill:#0078D7;}
	.st1{fill:none;stroke:#000000;stroke-width:4;stroke-miterlimit:10;stroke-dasharray:6;}
	.st2{fill:#FFFFFF;stroke:#000000;stroke-width:10;stroke-miterlimit:10;}
	.st3{fill:none;stroke:#000000;stroke-width:1.873;stroke-miterlimit:10;}
	.st4{enable-background:new    ;}
	.st5{fill:#FFFFFF;}
	.st6{stroke:#FFFFFF;stroke-width:0.9365;stroke-miterlimit:10;}
	.st7{fill:#FFFFFF;stroke:#000000;stroke-width:2;stroke-miterlimit:10;stroke-dasharray:6;}
	.st8{clip-path:url(#SVGID_2_);}
	.st9{clip-path:url(#SVGID_4_);}
	.st10{stroke:#000000;stroke-width:5;stroke-miterlimit:10;}
	.st11{fill:none;stroke:#000000;stroke-width:2.5986;stroke-miterlimit:10;}
	.st12{clip-path:url(#SVGID_6_);stroke:#000000;stroke-width:0.6496;stroke-miterlimit:10;}
	.st13{fill:none;stroke:#000000;stroke-width:3;stroke-miterlimit:10;}
	.st14{clip-path:url(#SVGID_8_);}
	.st15{fill:none;}
	.st16{fill:none;stroke:#000000;stroke-width:4;stroke-miterlimit:10;}
	.st17{clip-path:url(#SVGID_10_);}
	.st18{fill:none;stroke:#000000;stroke-width:3;stroke-miterlimit:10;stroke-dasharray:5.7725,5.7725;}
	.st19{fill:none;stroke:#000000;stroke-width:3;stroke-miterlimit:10;stroke-dasharray:5.8221,5.8221;}
	.st20{fill:none;stroke:#000000;stroke-width:3;stroke-miterlimit:10;stroke-dasharray:6.3262,6.3262;}
	.st21{fill:none;stroke:#000000;stroke-width:3;stroke-miterlimit:10;stroke-dasharray:5.8157,5.8157;}
	.st22{fill:none;stroke:#000000;stroke-width:3;stroke-miterlimit:10;stroke-dasharray:5.8264,5.8264;}
	.st23{fill:none;stroke:#000000;stroke-width:3;stroke-miterlimit:10;stroke-dasharray:5.9671,5.9671;}
	.st24{fill:none;stroke:#000000;stroke-width:3;stroke-miterlimit:10;stroke-dasharray:6.3149,6.3149;}
	.st25{fill:none;stroke:#000000;stroke-width:3;stroke-miterlimit:10;stroke-dasharray:5.5501,5.5501;}
	.st26{fill:none;stroke:#000000;stroke-width:3;stroke-miterlimit:10;stroke-dasharray:5.6589,5.6589;}
	.st27{fill:none;stroke:#000000;stroke-width:3;stroke-miterlimit:10;stroke-dasharray:5.5043,5.5043;}
	.st28{fill:none;stroke:#000000;stroke-width:3;stroke-miterlimit:10;stroke-dasharray:5.9963,5.9963;}
	.st29{fill:none;stroke:#000000;stroke-width:3;stroke-miterlimit:10;stroke-dasharray:6.353,6.353;}
	.st30{fill:none;stroke:#000000;stroke-width:3;stroke-miterlimit:10;stroke-dasharray:6.244,6.244;}
	.st31{fill:none;stroke:#000000;stroke-width:3;stroke-miterlimit:10;stroke-dasharray:3.4394,3.4394;}
	.st32{fill:none;stroke:#000000;stroke-width:3;stroke-miterlimit:10;stroke-dasharray:6.5636,6.5636;}
	.st33{fill:none;stroke:#000000;stroke-width:3;stroke-miterlimit:10;stroke-dasharray:3.7965,3.7965;}
	.st34{fill:none;stroke:#000000;stroke-width:3;stroke-miterlimit:10;stroke-dasharray:6.5912,6.5912;}
	.st35{fill:none;stroke:#000000;stroke-width:3;stroke-miterlimit:10;stroke-dasharray:5.0939,5.0939;}
	.st36{fill:none;stroke:#000000;stroke-width:3;stroke-miterlimit:10;stroke-dasharray:6.1857,6.1857;}
	.st37{fill:none;stroke:#000000;stroke-width:3;stroke-miterlimit:10;stroke-dasharray:4.1619,4.1619;}
	.st38{fill:none;stroke:#000000;stroke-width:3;stroke-miterlimit:10;stroke-dasharray:6.1801,6.1801;}
	.st39{fill:none;stroke:#000000;stroke-width:3;stroke-miterlimit:10;stroke-dasharray:5.5285,5.5285;}
	.st40{fill:none;stroke:#000000;stroke-width:3;stroke-miterlimit:10;stroke-dasharray:5.9005,5.9005;}
	.st41{fill:none;stroke:#000000;stroke-width:3;stroke-miterlimit:10;stroke-dasharray:4.5553,4.5553;}
	.st42{fill:none;stroke:#000000;stroke-width:3;stroke-miterlimit:10;stroke-dasharray:5.9108,5.9108;}
	.st43{fill:none;stroke:#000000;stroke-width:3;stroke-miterlimit:10;stroke-dasharray:5.8418,5.8418;}
	.st44{fill:none;stroke:#000000;stroke-width:3;stroke-miterlimit:10;stroke-dasharray:6.1877,6.1877;}
	.st45{fill:none;stroke:#000000;stroke-width:3;stroke-miterlimit:10;stroke-dasharray:6.1234,6.1234;}
	.st46{clip-path:url(#SVGID_12_);}
	.st47{stroke:#000000;stroke-width:3;stroke-miterlimit:10;}
	.st48{stroke:#000000;stroke-width:2.6479;stroke-miterlimit:10;}
	.st49{fill:none;stroke:#000000;stroke-width:4.4132;stroke-miterlimit:10;stroke-dasharray:5.2958;}
	.st50{clip-path:url(#SVGID_14_);}
	.st51{clip-path:url(#SVGID_16_);stroke:#000000;stroke-width:6;stroke-miterlimit:10;}
	.st52{stroke:#000000;stroke-width:4;stroke-miterlimit:10;}
	.st53{stroke:#FFFFFF;stroke-width:4;stroke-miterlimit:10;}
	.st54{fill:none;stroke:#000000;stroke-width:16;stroke-miterlimit:10;}
	.st55{clip-path:url(#SVGID_18_);}
	.st56{fill:none;stroke:#000000;stroke-width:3;stroke-miterlimit:10;stroke-dasharray:6;}
	
		.st57{fill:none;stroke:#FFFFFF;stroke-width:5;stroke-linecap:round;stroke-linejoin:round;stroke-miterlimit:10;stroke-dasharray:15;}
	.st58{clip-path:url(#SVGID_20_);}
	.st59{clip-path:url(#SVGID_22_);}
	.st60{fill:none;stroke:#FFFFFF;stroke-width:3.5207;stroke-miterlimit:10;stroke-dasharray:5.2811;}
	.st61{fill:#0078D7;stroke:#FFFFFF;stroke-width:8.8018;stroke-miterlimit:10;}
	.st62{fill:none;stroke:#FFFFFF;stroke-width:1.8801;stroke-miterlimit:10;}
	.st63{fill:#FFFFFF;stroke:#0078D7;stroke-width:1.8801;stroke-miterlimit:10;}
	.st64{clip-path:url(#SVGID_24_);}
	.st65{clip-path:url(#SVGID_26_);}
	.st66{clip-path:url(#SVGID_28_);}
	.st67{clip-path:url(#SVGID_30_);}
	.st68{clip-path:url(#SVGID_32_);}
	.st69{clip-path:url(#SVGID_34_);}
	.st70{fill:none;stroke:#000000;stroke-width:1.8231;stroke-miterlimit:10;stroke-dasharray:2.7347;}
	.st71{fill:#FFFFFF;stroke:#000000;stroke-width:4.5578;stroke-miterlimit:10;}
	.st72{fill:none;stroke:#000000;stroke-width:0.9116;stroke-miterlimit:10;}
	.st73{stroke:#FFFFFF;stroke-width:0.4558;stroke-miterlimit:10;}
	.st74{clip-path:url(#SVGID_36_);}
	.st75{fill:none;stroke:#000000;stroke-width:1.3673;stroke-miterlimit:10;}
	.st76{clip-path:url(#SVGID_38_);}
	.st77{fill:none;stroke:#000000;stroke-width:1.3673;stroke-miterlimit:10;stroke-dasharray:2.631,2.631;}
	.st78{fill:none;stroke:#000000;stroke-width:1.3673;stroke-miterlimit:10;stroke-dasharray:2.6536,2.6536;}
	.st79{fill:none;stroke:#000000;stroke-width:1.3673;stroke-miterlimit:10;stroke-dasharray:2.8834,2.8834;}
	.st80{fill:none;stroke:#000000;stroke-width:1.3673;stroke-miterlimit:10;stroke-dasharray:2.6507,2.6507;}
	.st81{fill:none;stroke:#000000;stroke-width:1.3673;stroke-miterlimit:10;stroke-dasharray:2.6555,2.6555;}
	.st82{fill:none;stroke:#000000;stroke-width:1.3673;stroke-miterlimit:10;stroke-dasharray:2.7197,2.7197;}
	.st83{fill:none;stroke:#000000;stroke-width:1.3673;stroke-miterlimit:10;stroke-dasharray:2.8782,2.8782;}
	.st84{fill:none;stroke:#000000;stroke-width:1.3673;stroke-miterlimit:10;stroke-dasharray:2.5296,2.5296;}
	.st85{fill:none;stroke:#000000;stroke-width:1.3673;stroke-miterlimit:10;stroke-dasharray:2.5792,2.5792;}
	.st86{fill:none;stroke:#000000;stroke-width:1.3673;stroke-miterlimit:10;stroke-dasharray:2.5087,2.5087;}
	.st87{fill:none;stroke:#000000;stroke-width:1.3673;stroke-miterlimit:10;stroke-dasharray:2.733,2.733;}
	.st88{fill:none;stroke:#000000;stroke-width:1.3673;stroke-miterlimit:10;stroke-dasharray:2.8956,2.8956;}
	.st89{fill:none;stroke:#000000;stroke-width:1.3673;stroke-miterlimit:10;stroke-dasharray:2.8459,2.8459;}
	.st90{fill:none;stroke:#000000;stroke-width:1.3673;stroke-miterlimit:10;stroke-dasharray:1.5676,1.5676;}
	.st91{fill:none;stroke:#000000;stroke-width:1.3673;stroke-miterlimit:10;stroke-dasharray:2.9916,2.9916;}
	.st92{fill:none;stroke:#000000;stroke-width:1.3673;stroke-miterlimit:10;stroke-dasharray:1.7303,1.7303;}
	.st93{fill:none;stroke:#000000;stroke-width:1.3673;stroke-miterlimit:10;stroke-dasharray:3.0041,3.0041;}
	.st94{fill:none;stroke:#000000;stroke-width:1.3673;stroke-miterlimit:10;stroke-dasharray:2.3217,2.3217;}
	.st95{fill:none;stroke:#000000;stroke-width:1.3673;stroke-miterlimit:10;stroke-dasharray:2.8193,2.8193;}
	.st96{fill:none;stroke:#000000;stroke-width:1.3673;stroke-miterlimit:10;stroke-dasharray:1.8969,1.8969;}
	.st97{fill:none;stroke:#000000;stroke-width:1.3673;stroke-miterlimit:10;stroke-dasharray:2.8168,2.8168;}
	.st98{fill:none;stroke:#000000;stroke-width:1.3673;stroke-miterlimit:10;stroke-dasharray:2.5198,2.5198;}
	.st99{fill:none;stroke:#000000;stroke-width:1.3673;stroke-miterlimit:10;stroke-dasharray:2.6893,2.6893;}
	.st100{fill:none;stroke:#000000;stroke-width:1.3673;stroke-miterlimit:10;stroke-dasharray:2.0762,2.0762;}
	.st101{fill:none;stroke:#000000;stroke-width:1.3673;stroke-miterlimit:10;stroke-dasharray:2.694,2.694;}
	.st102{fill:none;stroke:#000000;stroke-width:1.3673;stroke-miterlimit:10;stroke-dasharray:2.6626,2.6626;}
	.st103{fill:none;stroke:#000000;stroke-width:1.3673;stroke-miterlimit:10;stroke-dasharray:2.8202,2.8202;}
	.st104{fill:none;stroke:#000000;stroke-width:1.3673;stroke-miterlimit:10;stroke-dasharray:2.7909,2.7909;}
	.st105{clip-path:url(#SVGID_40_);}
	.st106{stroke:#000000;stroke-width:1.3673;stroke-miterlimit:10;}
	.st107{fill:none;stroke:#000000;stroke-width:2.2789;stroke-miterlimit:10;stroke-dasharray:2.7347;}
	.st108{clip-path:url(#SVGID_42_);}
	.st109{clip-path:url(#SVGID_44_);stroke:#000000;stroke-width:2.7347;stroke-miterlimit:10;}
	.st110{clip-path:url(#SVGID_46_);}
	.st111{clip-path:url(#SVGID_48_);}
	.st112{fill:none;stroke:#000000;stroke-width:1.8505;stroke-miterlimit:10;stroke-dasharray:2.7757;}
	.st113{clip-path:url(#SVGID_50_);}
	.st114{stroke:#000000;stroke-width:2.3131;stroke-miterlimit:10;}
	.st115{fill:none;stroke:#000000;stroke-width:1.8505;stroke-miterlimit:10;}
	.st116{clip-path:url(#SVGID_52_);}
	.st117{stroke:#000000;stroke-width:1.8505;stroke-miterlimit:10;}
	.st118{stroke:#FFFFFF;stroke-width:1.8505;stroke-miterlimit:10;}
	.st119{stroke:#000000;stroke-width:1.6367;stroke-miterlimit:10;}
	.st120{fill:none;stroke:#000000;stroke-width:7.402;stroke-miterlimit:10;}
	.st121{clip-path:url(#SVGID_54_);}
	.st122{fill:none;stroke:#000000;stroke-width:7;stroke-miterlimit:10;stroke-dasharray:5;}
	
		.st123{fill:none;stroke:#FFFFFF;stroke-width:2.3131;stroke-linecap:round;stroke-linejoin:round;stroke-miterlimit:10;stroke-dasharray:6.9394;}
	.st124{clip-path:url(#SVGID_56_);}
	.st125{clip-path:url(#SVGID_58_);}
	.st126{fill:none;stroke:#FFFFFF;stroke-width:4;stroke-miterlimit:10;stroke-dasharray:6;}
	.st127{clip-path:url(#SVGID_60_);}
	.st128{fill:#FFFFFF;stroke:#FFFFFF;stroke-width:5;stroke-miterlimit:10;}
	.st129{fill:none;stroke:#FFFFFF;stroke-width:4;stroke-miterlimit:10;}
	.st130{clip-path:url(#SVGID_62_);}
	.st131{clip-path:url(#SVGID_64_);}
	.st132{fill:none;stroke:#FFFFFF;stroke-width:3;stroke-miterlimit:10;stroke-dasharray:6;}
	.st133{clip-path:url(#SVGID_68_);}
	.st134{clip-path:url(#SVGID_72_);}
	.st135{fill:none;stroke:#000000;stroke-width:1.9687;stroke-linejoin:round;stroke-miterlimit:10;}
	.st136{fill:none;stroke:#000000;stroke-width:2.0741;stroke-linejoin:round;stroke-miterlimit:10;}
	.st137{fill:none;stroke:#000000;stroke-width:2.0312;stroke-linejoin:round;stroke-miterlimit:10;}
	.st138{fill:none;stroke:#000000;stroke-width:1.7688;stroke-linejoin:round;stroke-miterlimit:10;}
	.st139{fill:none;stroke:#000000;stroke-width:1.8635;stroke-linejoin:round;stroke-miterlimit:10;}
	.st140{fill:none;stroke:#000000;stroke-width:1.525;stroke-linejoin:round;stroke-miterlimit:10;}
	.st141{fill:none;stroke:#000000;stroke-width:1.6381;stroke-linejoin:round;stroke-miterlimit:10;}
	.st142{fill:none;stroke:#000000;stroke-width:1.8668;stroke-linejoin:round;stroke-miterlimit:10;}
	.st143{fill:none;stroke:#000000;stroke-width:2.3166;stroke-linejoin:round;stroke-miterlimit:10;}
	.st144{fill:none;stroke:#000000;stroke-width:1.9776;stroke-linejoin:round;stroke-miterlimit:10;}
	.st145{fill:none;stroke:#000000;stroke-width:2.4765;stroke-linejoin:round;stroke-miterlimit:10;}
	.st146{clip-path:url(#SVGID_78_);}
	.st147{clip-path:url(#SVGID_83_);}
	.st148{clip-path:url(#SVGID_84_);}
	.st149{clip-path:url(#SVGID_86_);}
	.st150{stroke:#000000;stroke-width:6;stroke-miterlimit:10;}
	.st151{clip-path:url(#SVGID_88_);}
	.st152{clip-path:url(#SVGID_90_);}
	.st153{clip-path:url(#SVGID_92_);}
	.st154{fill:none;stroke:#000000;stroke-width:4.9083;stroke-linecap:round;stroke-linejoin:bevel;stroke-miterlimit:10;}
	.st155{clip-path:url(#SVGID_94_);}
	.st156{clip-path:url(#SVGID_96_);}
	.st157{clip-path:url(#SVGID_98_);}
	.st158{clip-path:url(#SVGID_100_);}
	.st159{fill:#F0F0F0;}
	.st160{fill:#444444;}
	.st161{clip-path:url(#SVGID_102_);}
	.st162{clip-path:url(#SVGID_104_);}
	.st163{clip-path:url(#SVGID_106_);}
	.st164{clip-path:url(#SVGID_108_);}
	.st165{clip-path:url(#SVGID_110_);}
	.st166{clip-path:url(#SVGID_112_);}
	.st167{fill:#FFFFFF;stroke:#E500E0;stroke-miterlimit:10;}
</style>
<g>
	<path class="st5" d="M220.7,139.1l-38.2-20.2c-0.2-0.1-0.5-0.1-0.8,0L111.8,156c-0.2,0.1-0.5,0.1-0.8,0l-22.7-12v-44
		c0-0.1-0.1-0.2-0.1-0.2L64.4,87.3c-0.2-0.1-0.4,0-0.4,0.2V131l-22.9-12.1c-0.2-0.1-0.5-0.1-0.8,0L2.2,139.1c-0.6,0.3-0.6,1.1,0,1.4
		l108.9,57.7c0.2,0.1,0.5,0.1,0.8,0l108.9-57.7C221.2,140.2,221.2,139.4,220.7,139.1z"/>
	<path class="st5" d="M111.6,91.6l69-37.1c0.5-0.3,0.5-1.1,0-1.4L111.6,3c-0.5-0.3-1.2,0.1-1.2,0.7v87.2
		C110.4,91.5,111.1,91.8,111.6,91.6z"/>
	<path class="st5" d="M85,23.9l3.1-2.2c0.1,0,0.1-0.1,0.1-0.2v-1.8c0-0.2-0.2-0.3-0.4-0.2l-3,2.2c-0.1,0-0.1,0.1-0.1,0.2l-0.1,1.8
		C84.5,23.9,84.8,24,85,23.9z"/>
	<path class="st5" d="M63.7,39.4l3-2.2c0.1,0,0.1-0.1,0.1-0.2v-1.8c0-0.2-0.2-0.3-0.4-0.2l-3,2.2c-0.1,0-0.1,0.1-0.1,0.2v1.8
		C63.2,39.4,63.5,39.5,63.7,39.4z"/>
	<path class="st5" d="M49.4,49.7l3-2.2c0.1,0,0.1-0.1,0.1-0.2v-1.8c0-0.2-0.2-0.3-0.4-0.2l-3,2.2c-0.1,0-0.1,0.1-0.1,0.2v1.8
		C49,49.7,49.2,49.8,49.4,49.7z"/>
	<path class="st5" d="M70.8,34.2l3-2.2c0.1,0,0.1-0.1,0.1-0.2V30c0-0.2-0.2-0.3-0.4-0.2l-3,2.2c-0.1,0-0.1,0.1-0.1,0.2V34
		C70.4,34.2,70.6,34.4,70.8,34.2z"/>
	<path class="st5" d="M92.1,18.8l3-2.2c0.1,0,0.1-0.1,0.1-0.2v-1.8c0-0.2-0.2-0.3-0.4-0.2l-3,2.2c-0.1,0-0.1,0.1-0.1,0.2v1.8
		C91.7,18.8,92,18.9,92.1,18.8z"/>
	<path class="st5" d="M77.9,29.1l3-2.2c0.1,0,0.1-0.1,0.1-0.2v-1.8c0-0.2-0.2-0.3-0.4-0.2l-3,2.2c-0.1,0-0.1,0.1-0.1,0.2v1.8
		C77.5,29.1,77.7,29.2,77.9,29.1z"/>
	<path class="st5" d="M56.5,44.5l3-2.2c0.1,0,0.1-0.1,0.1-0.2v-1.8c0-0.2-0.2-0.3-0.4-0.2l-3,2.2c-0.1,0-0.1,0.1-0.1,0.2v1.8
		C56.1,44.5,56.4,44.7,56.5,44.5z"/>
	<path class="st5" d="M99.3,13.6l3-2.2c0.1,0,0.1-0.1,0.1-0.2V9.4c0-0.2-0.2-0.3-0.4-0.2l-3,2.2c-0.1,0-0.1,0.1-0.1,0.2v1.8
		C98.8,13.6,99.1,13.8,99.3,13.6z"/>
	<path class="st5" d="M106.6,8.3c0,0,1.4-1,1.5-1.2s0.1-2.3,0.1-2.3c0-0.1-0.1-0.2-0.2-0.1l-1.8,1.5C106,6.3,106,6.4,106,6.5V8
		C106,8.3,106.3,8.5,106.6,8.3z"/>
	<path class="st5" d="M130.1,101.3c-0.2-0.1-0.3,0-0.3,0.2v2.1c0,0.1,0,0.2,0.1,0.2l3.4,1.9c0.2,0.1,0.3,0,0.3-0.2v-2.1
		c0-0.1,0-0.2-0.1-0.2L130.1,101.3z"/>
	<path class="st5" d="M95.9,85.1l3.4,1.9c0.2,0.1,0.3,0,0.3-0.2v-2.1c0-0.1,0-0.2-0.1-0.2l-3.4-1.9c-0.2-0.1-0.3,0-0.3,0.2v2.1
		C95.8,85,95.8,85.1,95.9,85.1z"/>
	<path class="st5" d="M114.7,92.8c-0.2-0.1-0.3,0-0.3,0.2v2.1c0,0.1,0,0.2,0.1,0.2l3.4,1.9c0.2,0.1,0.3,0,0.3-0.2v-2.1
		c0-0.1,0-0.2-0.1-0.2L114.7,92.8z"/>
	<path class="st5" d="M122.4,97c-0.2-0.1-0.3,0-0.3,0.2v2.1c0,0.1,0,0.2,0.1,0.2l3.4,1.9c0.2,0.1,0.3,0,0.3-0.2v-2.1
		c0-0.1,0-0.2-0.1-0.2L122.4,97z"/>
	<path class="st5" d="M80.3,74.4v2.1c0,0.1,0,0.2,0.1,0.2l3.4,1.9c0.2,0.1,0.3,0,0.3-0.2v-2.1c0-0.1,0-0.2-0.1-0.2l-3.4-1.9
		C80.5,74.1,80.3,74.2,80.3,74.4z"/>
	<path class="st5" d="M72.6,70.2v2.1c0,0.1,0,0.2,0.1,0.2l3.4,1.9c0.2,0.1,0.3,0,0.3-0.2V72c0-0.1,0-0.2-0.1-0.2L72.9,70
		C72.8,69.9,72.6,70,72.6,70.2z"/>
	<path class="st5" d="M88.1,78.6v2.1c0,0.1,0,0.2,0.1,0.2l3.4,1.9c0.2,0.1,0.3,0,0.3-0.2v-2.1c0-0.1,0-0.2-0.1-0.2l-3.4-1.9
		C88.2,78.3,88.1,78.4,88.1,78.6z"/>
	<path class="st5" d="M103.6,89.4l3.4,1.9c0.2,0.1,0.3,0,0.3-0.2v-2.1c0-0.1,0-0.2-0.1-0.2l-3.4-1.9c-0.2-0.1-0.3,0-0.3,0.2v2.1
		C103.5,89.3,103.6,89.3,103.6,89.4z"/>
	<path class="st5" d="M18.6,42.9l3.4,1.9c0.2,0.1,0.3,0,0.3-0.2v-2.1c0-0.1,0-0.2-0.1-0.2l-3.4-1.9c-0.2-0.1-0.3,0-0.3,0.2v2.1
		C18.5,42.8,18.6,42.9,18.6,42.9z"/>
	<path class="st5" d="M64.9,66v2.1c0,0.1,0,0.2,0.1,0.2l3.4,1.9c0.2,0.1,0.3,0,0.3-0.2v-2.1c0-0.1,0-0.2-0.1-0.2l-3.4-1.9
		C65.1,65.7,64.9,65.8,64.9,66z"/>
	<path class="st5" d="M41.8,55.6l3.4,1.9c0.2,0.1,0.3,0,0.3-0.2v-2.1c0-0.1,0-0.2-0.1-0.2l-1.9-1l1.8-1.3c0.1,0,0.1-0.1,0.1-0.2
		v-1.8c0-0.2-0.2-0.3-0.4-0.2l-3.2,2.4c-0.1,0.1-0.1,0.1-0.1,0.2l0,0.1c0,0,0,0.1,0,0.1v2.1C41.7,55.5,41.7,55.6,41.8,55.6z"/>
	<path class="st5" d="M34.1,51.4l3.4,1.9c0.2,0.1,0.3,0,0.3-0.2v-2.1c0-0.1,0-0.2-0.1-0.2l-3.4-1.9c-0.2-0.1-0.3,0-0.3,0.2v2.1
		C34,51.3,34,51.3,34.1,51.4z"/>
	<path class="st5" d="M26.4,47.1l3.4,1.9c0.2,0.1,0.3,0,0.3-0.2v-2.1c0-0.1,0-0.2-0.1-0.2l-3.4-1.9c-0.2-0.1-0.3,0-0.3,0.2v2.1
		C26.2,47,26.3,47.1,26.4,47.1z"/>
	<path class="st5" d="M57.1,61.7v2.1c0,0.1,0,0.2,0.1,0.2l3.4,1.9c0.2,0.1,0.3,0,0.3-0.2v-2.1c0-0.1,0-0.2-0.1-0.2l-3.4-1.9
		C57.3,61.5,57.1,61.6,57.1,61.7z"/>
	<path class="st5" d="M49.4,57.5v2.1c0,0.1,0,0.2,0.1,0.2l3.4,1.9c0.2,0.1,0.3,0,0.3-0.2v-2.1c0-0.1,0-0.2-0.1-0.2l-3.4-1.9
		C49.6,57.2,49.4,57.3,49.4,57.5z"/>
	<path class="st5" d="M44.2,59c0-0.1-0.2-0.2-0.3-0.2l-2,1.1c-0.1,0-0.1,0.1-0.1,0.2l0,3.9c0,0.1,0.2,0.2,0.3,0.2l2-1.1
		c0.1,0,0.1-0.1,0.1-0.2L44.2,59z"/>
	<path class="st5" d="M44.2,67.7c0-0.1-0.2-0.2-0.3-0.2l-2,1.1c-0.1,0-0.1,0.1-0.1,0.2l0,3.9c0,0.1,0.2,0.2,0.3,0.2l2-1.1
		c0.1,0,0.1-0.1,0.1-0.2L44.2,67.7z"/>
	<path class="st5" d="M44.2,76.4c0-0.1-0.2-0.2-0.3-0.2l-2,1.1c-0.1,0-0.1,0.1-0.1,0.2l0,3.9c0,0.1,0.2,0.2,0.3,0.2l2-1.1
		c0.1,0,0.1-0.1,0.1-0.2L44.2,76.4z"/>
	<path class="st5" d="M43.8,84.9l-2,1.1c-0.1,0-0.1,0.1-0.1,0.2l0,3.9c0,0.1,0.2,0.2,0.3,0.2l2-1.1c0.1,0,0.1-0.1,0.1-0.2l0-3.9
		C44.1,84.9,44,84.8,43.8,84.9z"/>
	<path class="st5" d="M18.9,66.1v2.1c0,0.2,0.2,0.3,0.4,0.2l3.4-1.9c0.1,0,0.1-0.1,0.1-0.2v-2.1c0-0.2-0.2-0.3-0.4-0.2L19,65.9
		C19,66,18.9,66.1,18.9,66.1z"/>
	<path class="st5" d="M34.4,57.7v2.1c0,0.2,0.2,0.3,0.4,0.2l3.4-1.9c0.1,0,0.1-0.1,0.1-0.2v-2.1c0-0.2-0.2-0.3-0.4-0.2l-3.4,1.9
		C34.5,57.5,34.4,57.6,34.4,57.7z"/>
	<path class="st5" d="M26.7,61.9V64c0,0.2,0.2,0.3,0.4,0.2l3.4-1.9c0.1,0,0.1-0.1,0.1-0.2v-2.1c0-0.2-0.2-0.3-0.4-0.2l-3.4,1.9
		C26.7,61.8,26.7,61.8,26.7,61.9z"/>
</g>
</svg>
