<?xml version="1.0" encoding="UTF-8" standalone="no"?>
<svg
   xmlns:dc="http://purl.org/dc/elements/1.1/"
   xmlns:cc="http://creativecommons.org/ns#"
   xmlns:rdf="http://www.w3.org/1999/02/22-rdf-syntax-ns#"
   xmlns:svg="http://www.w3.org/2000/svg"
   xmlns="http://www.w3.org/2000/svg"
   xmlns:sodipodi="http://sodipodi.sourceforge.net/DTD/sodipodi-0.dtd"
   xmlns:inkscape="http://www.inkscape.org/namespaces/inkscape"
   id="Capa_1"
   data-name="Capa 1"
   viewBox="0 0 48 48"
   version="1.1"
   sodipodi:docname="ShareTarget.svg"
   width="48"
   height="48"
   inkscape:version="0.92.2 (5c3e80d, 2017-08-06)">
  <metadata
     id="metadata13">
    <rdf:RDF>
      <cc:Work
         rdf:about="">
        <dc:format>image/svg+xml</dc:format>
        <dc:type
           rdf:resource="http://purl.org/dc/dcmitype/StillImage" />
        <dc:title>icon</dc:title>
      </cc:Work>
    </rdf:RDF>
  </metadata>
  <defs
     id="defs11" />
  <sodipodi:namedview
     pagecolor="#ffffff"
     bordercolor="#666666"
     borderopacity="1"
     objecttolerance="10"
     gridtolerance="10"
     guidetolerance="10"
     inkscape:pageopacity="0"
     inkscape:pageshadow="2"
     inkscape:window-width="1920"
     inkscape:window-height="986"
     id="namedview9"
     showgrid="false"
     fit-margin-top="0"
     fit-margin-left="0"
     fit-margin-right="0"
     fit-margin-bottom="0"
     inkscape:zoom="6.2933333"
     inkscape:cx="-59.357237"
     inkscape:cy="33.572321"
     inkscape:window-x="-11"
     inkscape:window-y="-11"
     inkscape:window-maximized="1"
     inkscape:current-layer="Capa_1" />
  <title
     id="title2">icon</title>
  <polygon
     points="92.288,119.409 24.943,119.409 24.943,60.587 18.783,60.587 18.783,125.569 98.447,125.569 98.447,108.465 92.288,108.465 "
     id="polygon4"
     transform="matrix(0.42691891,0,0,0.42691891,-8.0188179,-8.0190122)" />
  <path
     inkscape:connector-curvature="0"
     d="M 26.386654,14.722485 V 4.6192225 L 10.078151,21.948454 26.386654,39.278967 V 28.686529 C 45.771462,25.951754 46,8.1179165 46,7.9343415 v -3.52311 l -2.308508,2.661588 c -6.189838,7.1373755 -14.3351,7.6843315 -17.304838,7.6496655 z m -1.452126,11.493758 -1.177366,0.123255 v 6.309243 L 13.688566,21.948446 23.757162,11.249431 v 5.865012 l 1.1427,0.150212 a 16.200151,16.200151 0 0 0 1.99138,0.103997 24.927731,24.927731 0 0 0 15.98752,-5.803365 c -1.154256,4.940579 -5.017608,13.289986 -17.944234,14.650956 z"
     id="path6"
     style="stroke-width:0.42691892" />
</svg>
