<?xml version="1.0" encoding="UTF-8" standalone="no"?>
<svg
   xmlns:dc="http://purl.org/dc/elements/1.1/"
   xmlns:cc="http://creativecommons.org/ns#"
   xmlns:rdf="http://www.w3.org/1999/02/22-rdf-syntax-ns#"
   xmlns:svg="http://www.w3.org/2000/svg"
   xmlns="http://www.w3.org/2000/svg"
   xmlns:sodipodi="http://sodipodi.sourceforge.net/DTD/sodipodi-0.dtd"
   xmlns:inkscape="http://www.inkscape.org/namespaces/inkscape"
   id="Capa_1"
   data-name="Capa 1"
   viewBox="0 0 48 48"
   version="1.1"
   sodipodi:docname="StoreNotification.svg"
   width="48"
   height="48"
   inkscape:version="0.92.2 (5c3e80d, 2017-08-06)">
  <metadata
     id="metadata13">
    <rdf:RDF>
      <cc:Work
         rdf:about="">
        <dc:format>image/svg+xml</dc:format>
        <dc:type
           rdf:resource="http://purl.org/dc/dcmitype/StillImage" />
        <dc:title>icon</dc:title>
      </cc:Work>
    </rdf:RDF>
  </metadata>
  <defs
     id="defs11" />
  <sodipodi:namedview
     pagecolor="#ffffff"
     bordercolor="#666666"
     borderopacity="1"
     objecttolerance="10"
     gridtolerance="10"
     guidetolerance="10"
     inkscape:pageopacity="0"
     inkscape:pageshadow="2"
     inkscape:window-width="1920"
     inkscape:window-height="986"
     id="namedview9"
     showgrid="false"
     fit-margin-top="0"
     fit-margin-left="0"
     fit-margin-right="0"
     fit-margin-bottom="0"
     inkscape:zoom="8.9001173"
     inkscape:cx="3.6256469"
     inkscape:cy="18.898698"
     inkscape:window-x="-11"
     inkscape:window-y="-11"
     inkscape:window-maximized="1"
     inkscape:current-layer="Capa_1" />
  <title
     id="title2">icon</title>
  <path
     d="M 23.999999,48 16.448485,36.2435 H 1.3521805 V 0 H 46.647819 V 36.2435 H 31.551513 Z M 4.1035575,33.49212 H 17.950461 l 6.049538,9.41622 6.049539,-9.41622 H 43.896441 V 2.751377 H 4.1035575 Z"
     id="path4"
     inkscape:connector-curvature="0"
     style="stroke-width:0.44670802" />
  <path
     d="m 29.134904,12.873071 v -0.275574 a 3.6814771,3.6814771 0 0 0 -1.534215,-2.986985 4.1914345,4.1914345 0 0 1 0.383892,1.131015 3.1275011,3.1275011 0 0 1 0.610932,1.855974 v 0.275574 H 27.51925 V 11.513171 A 3.6875746,3.6875746 0 0 0 20.251534,10.63019 v 1.7e-4 a 3.7092266,3.7092266 0 0 0 -0.106316,0.882811 v 1.359904 H 14.286463 V 25.01715 a 1.207693,1.207693 0 0 0 1.20759,1.20759 H 32.702425 A 1.0110342,1.0110342 0 0 0 33.713537,25.2138 V 12.873071 Z m -8.450447,-1.3599 a 3.1477794,3.1477794 0 0 1 6.295558,0 v 1.359904 h -4.679896 v -0.275574 a 3.1425909,3.1425909 0 0 1 3.123177,-3.146692 2.6015426,2.6015426 0 0 0 -0.843684,-0.435781 3.674504,3.674504 0 0 0 -2.712411,2.699318 h 1.7e-4 a 3.6995554,3.6995554 0 0 0 -0.106638,0.883142 v 0.275574 h -1.076276 z m 2.856336,11.956509 h -3.60279 v -3.60279 h 3.60279 z m 0,-4.16805 h -3.60279 v -3.602805 h 3.60279 z m 4.168044,4.16805 h -3.602789 v -3.60279 h 3.602789 z m 0,-4.16805 h -3.602789 v -3.602805 h 3.602789 z"
     id="path6"
     inkscape:connector-curvature="0"
     style="stroke-width:0.44670802" />
</svg>
