<svg xmlns="http://www.w3.org/2000/svg" width="48" height="48" viewBox="0 0 48 48"><path d="M24,46.472,18.764,36H2V2H46V36H29.236ZM4,34H20l4,8,4-8H44V4H4Z"/><path d="M29.545,14.117,28.3,13.286l-1.574.315a3.016,3.016,0,0,0-1.935-2.026,3.4,3.4,0,0,1,.581.766,2.609,2.609,0,0,1,.944,1.342l-.933.187a3.01,3.01,0,0,0-3-2.869c-1.629,0-2.952,1.709-3.008,3.325l0,.747L17,15.5v9.25L28.3,27,31,25.961V14.325ZM27,16.75V20H23V17.376Zm-7.221-2.321c0-1.432,1.165-3.013,2.6-3.013a2.6,2.6,0,0,1,2.594,2.536L21.24,14.7a3.2,3.2,0,0,1,1.882-2.732,2.162,2.162,0,0,0-.656-.129,3.74,3.74,0,0,0-1.643,2.9v.041l-1.044.209ZM22,17.533V20H19V18ZM19,21h3v2.476l-3-.465Zm4,2.63V21h4v3.25Z"/></svg>