<svg id="Capa_1" data-name="Capa 1" xmlns="http://www.w3.org/2000/svg" viewBox="0 0 150 150"><title>icon 4</title><path d="M63.20485,30.30345V61.89311A34.81869,34.81869,0,0,1,69.364,65.8054V47.45487h52.16705V77.15934H78.711a34.50525,34.50525,0,0,1,2.462,6.15924h46.51733V30.30345Zm58.32623,10.99219H69.364V36.46269h52.16705Z"/><path d="M99.363,88.07776,89.55879,97.882l4.35477,4.35477,2.424-2.424v4.06a6.67167,6.67167,0,0,1-6.66448,6.66448H86.822v6.15923h2.85105a12.83892,12.83892,0,0,0,12.82371-12.82371V99.92293l2.31272,2.31385,4.35477-4.35477Z"/><path d="M76.5654,93.03223A28.75206,28.75206,0,0,0,49.18317,64.3605c-.25564-.02224-.50673-.0689-.76639-.0689-.07237,0-.1416.01747-.21376.01921-.1276-.00163-.2512-.01921-.37913-.01921a28.74107,28.74107,0,0,0,0,57.48214c.12793,0,.25152-.01758.37913-.01921.07216.00174.14139.01921.21376.01921.25966,0,.51075-.04666.76639-.0689A28.75226,28.75226,0,0,0,76.5654,93.03223Zm-5.83652,4.81513H63.31716c.12782-1.56284.21083-3.1617.21083-4.81513a58.18279,58.18279,0,0,0-.342-6.296h7.16129a23.03492,23.03492,0,0,1,.38162,11.11118Zm-21.94665,18.5445c-.17687.00716-.35135.02355-.52908.0268-3.29831-.167-6.82947-5.3772-8.548-13.23793H57.12843C55.44482,110.88163,52.02239,116.02826,48.78224,116.39186ZM38.867,97.84737c-.1479-1.54471-.22808-3.15356-.22808-4.81513a49.685,49.685,0,0,1,.40538-6.296H57.78924a49.685,49.685,0,0,1,.40538,6.296c0,1.66158-.08019,3.27042-.22808,4.81513Zm9.38613-28.2007c.17774.00326.35222.01964.52908.0268,3.02867.33985,6.22085,4.85018,8.00038,11.72935H40.051C41.87,74.371,45.16568,69.803,48.25316,69.64667Zm19.8569,11.75615H62.32269a35.79131,35.79131,0,0,0-3.06849-8.77729A23.5537,23.5537,0,0,1,68.11005,81.40282ZM38.05387,71.78926A34.50557,34.50557,0,0,0,34.511,81.40282H27.5384A23.5299,23.5299,0,0,1,38.05387,71.78926ZM25.3013,86.73619h8.3463a58.18278,58.18278,0,0,0-.342,6.296c0,1.65344.083,3.2523.21083,4.81513H24.91967a23.03855,23.03855,0,0,1,.38162-11.11118Zm1.46214,16.44455h7.45968a35.90843,35.90843,0,0,0,3.83075,11.09512A23.51975,23.51975,0,0,1,26.76344,103.18073Zm32.49087,10.25875a37.20591,37.20591,0,0,0,3.35625-10.25875H68.885A23.53843,23.53843,0,0,1,59.25431,113.43948Z"/></svg>