<?xml version="1.0" encoding="UTF-8" standalone="no"?>
<svg
   xmlns:dc="http://purl.org/dc/elements/1.1/"
   xmlns:cc="http://creativecommons.org/ns#"
   xmlns:rdf="http://www.w3.org/1999/02/22-rdf-syntax-ns#"
   xmlns:svg="http://www.w3.org/2000/svg"
   xmlns="http://www.w3.org/2000/svg"
   xmlns:sodipodi="http://sodipodi.sourceforge.net/DTD/sodipodi-0.dtd"
   xmlns:inkscape="http://www.inkscape.org/namespaces/inkscape"
   id="Capa_1"
   data-name="Capa 1"
   viewBox="0 0 47.999995 47.999999"
   version="1.1"
   sodipodi:docname="WebToAppLink.svg"
   width="47.999996"
   height="48"
   inkscape:version="0.92.2 (5c3e80d, 2017-08-06)">
  <metadata
     id="metadata15">
    <rdf:RDF>
      <cc:Work
         rdf:about="">
        <dc:format>image/svg+xml</dc:format>
        <dc:type
           rdf:resource="http://purl.org/dc/dcmitype/StillImage" />
        <dc:title>icon 4</dc:title>
      </cc:Work>
    </rdf:RDF>
  </metadata>
  <defs
     id="defs13" />
  <sodipodi:namedview
     pagecolor="#ffffff"
     bordercolor="#666666"
     borderopacity="1"
     objecttolerance="10"
     gridtolerance="10"
     guidetolerance="10"
     inkscape:pageopacity="0"
     inkscape:pageshadow="2"
     inkscape:window-width="1920"
     inkscape:window-height="986"
     id="namedview11"
     showgrid="false"
     fit-margin-top="0"
     fit-margin-left="0"
     fit-margin-right="0"
     fit-margin-bottom="0"
     inkscape:zoom="8.9001173"
     inkscape:cx="11.073587"
     inkscape:cy="30.793981"
     inkscape:window-x="-11"
     inkscape:window-y="-11"
     inkscape:window-maximized="1"
     inkscape:current-layer="Capa_1" />
  <title
     id="title2">icon 4</title>
  <path
     d="M 19.500098,3.7869689 V 17.748284 a 15.388412,15.388412 0 0 1 2.722088,1.729069 v -8.11017 H 45.277852 V 24.495322 H 26.353171 a 15.249885,15.249885 0 0 1 1.088102,2.722128 H 47.999997 V 3.7869689 Z M 45.277865,8.6450602 H 22.222186 v -2.135963 h 23.055666 z"
     id="path4"
     inkscape:connector-curvature="0"
     style="stroke-width:0.4419584" />
  <path
     d="m 35.480496,29.320809 -4.333053,4.333066 1.924627,1.924627 1.071307,-1.071307 v 1.794351 a 2.9486005,2.9486005 0 0 1 -2.945423,2.945423 h -1.260059 v 2.722123 h 1.260046 a 5.6742683,5.6742683 0 0 0 5.667546,-5.667546 v -1.745665 l 1.022126,1.022626 1.924627,-1.924627 z"
     id="path6"
     inkscape:connector-curvature="0"
     style="stroke-width:0.4419584" />
  <path
     d="M 25.404905,31.510479 A 12.707214,12.707214 0 0 0 13.303099,18.838767 c -0.112982,-0.0098 -0.223954,-0.03045 -0.338712,-0.03045 -0.03199,0 -0.06258,0.0077 -0.09447,0.0085 -0.05639,-7.07e-4 -0.11102,-0.0085 -0.16756,-0.0085 a 12.702357,12.702357 0 0 0 0,25.404714 c 0.05654,0 0.111161,-0.0078 0.16756,-0.0085 0.03189,8.84e-4 0.06249,0.0085 0.09447,0.0085 0.114758,0 0.22573,-0.02064 0.338712,-0.03045 a 12.707302,12.707302 0 0 0 12.101806,-12.6721 z m -2.579499,2.128087 h -3.275672 c 0.05649,-0.69071 0.09318,-1.39734 0.09318,-2.128087 a 25.714372,25.714372 0 0 0 -0.151149,-2.78257 h 3.164992 a 10.180476,10.180476 0 0 1 0.16866,4.910679 z M 13.1259,41.834463 c -0.07817,0.0031 -0.155282,0.01043 -0.233831,0.01184 -1.457716,-0.07381 -3.0183421,-2.376498 -3.7778609,-5.850614 h 7.7003649 c -0.744085,3.403478 -2.256657,5.678074 -3.688668,5.83877 z M 8.7437807,33.63857 C 8.6784151,32.955873 8.6429788,32.244828 8.6429788,31.510483 a 21.958702,21.958702 0 0 1 0.1791611,-2.78257 h 8.2844841 a 21.958702,21.958702 0 0 1 0.179161,2.78257 c 0,0.734349 -0.03544,1.44539 -0.100802,2.128087 z M 12.89206,21.175034 c 0.07855,0.0015 0.155667,0.0087 0.233831,0.01185 1.338546,0.150199 2.749357,2.143578 3.535835,5.183884 H 9.2670594 c 0.8039226,-3.107771 2.2604766,-5.126637 3.6250136,-5.195729 z m 8.775923,5.195729 H 19.11022 a 15.81827,15.81827 0 0 0 -1.356145,-3.879196 10.409755,10.409755 0 0 1 3.913917,3.879196 z M 8.3844111,22.12197 A 15.250026,15.250026 0 0 0 6.81861,26.370763 H 3.7370111 a 10.399237,10.399237 0 0 1 4.6474,-4.248793 z M 2.748306,28.727891 h 3.6887171 a 25.714367,25.714367 0 0 0 -0.1511497,2.78257 c 0,0.730752 0.036683,1.437381 0.093178,2.128087 h -3.79941 a 10.18208,10.18208 0 0 1 0.1686601,-4.910679 z m 0.646205,7.267807 H 6.691379 A 15.870032,15.870032 0 0 0 8.3844111,40.899279 10.394751,10.394751 0 0 1 3.394511,35.995693 Z m 14.359613,4.53394 a 16.443464,16.443464 0 0 0 1.483323,-4.53394 h 2.773041 a 10.403006,10.403006 0 0 1 -4.256364,4.533936 z"
     id="path8"
     inkscape:connector-curvature="0"
     style="stroke-width:0.4419584" />
</svg>
