<svg xmlns="http://www.w3.org/2000/svg" width="48" height="48" viewBox="0 0 48 48"><polyline points="13 20 21 44 23 44 15 20"/><polyline points="15 20 7 44 5 44 13 20"/><rect x="8.625" y="35" width="10" height="2"/><path d="M45,21.563q0,.234-.264.234l-3.94-.059H33.032v2.153l.029,4.526a2.169,2.169,0,0,1-.659,1.772q-.7.557-3.311.557-.439,0-.981-.015a.881.881,0,0,1-.542-.1,2,2,0,0,1-.205-.527,4.574,4.574,0,0,0-.6-1.348,24.191,24.191,0,0,0,3.12.176,1.558,1.558,0,0,0,1.055-.249,1.308,1.308,0,0,0,.234-.894v-6.05H23.467L19.5,21.8a.207.207,0,0,1-.234-.234v-1.3q0-.264.234-.264l3.97.059h7.705a16.261,16.261,0,0,0-.205-2.959q1.04.161,1.611.293A25.846,25.846,0,0,0,37.046,14H28.228l-3.984.059a.207.207,0,0,1-.234-.234V12.555a.207.207,0,0,1,.234-.234l3.984.059h9.1a2.442,2.442,0,0,0,.864-.117.786.786,0,0,1,.308-.088q.278,0,.835.6.688.688.688,1.025,0,.293-.366.41A6.62,6.62,0,0,0,38.5,15a44.885,44.885,0,0,1-5.464,3.765v1.289H40.8L44.736,20A.233.233,0,0,1,45,20.26Zm-.923-7.983q0,.249-.234.249H42.451q-.234,0-.234-.249V9.112H21.724V13.58q0,.249-.234.249H20.1q-.234,0-.234-.249l.059-3.237v-1l-.059-1.685a.207.207,0,0,1,.234-.234l4.175.059H30.85V7.062A14.457,14.457,0,0,0,30.63,4q.835.044,1.978.161.366.044.366.234a1.787,1.787,0,0,1-.176.571,8.019,8.019,0,0,0-.146,2.095v.425H39.7l4.146-.059a.207.207,0,0,1,.234.234l-.059,1.479v1.2Z"/></svg>